<?xml version="1.0" encoding="UTF-8" standalone="no"?>
<svg
   width="137.71"
   height="135.81"
   version="1.1"
   id="svg12"
   sodipodi:docname="M_icon.svg"
   inkscape:version="1.2.2 (732a01da63, 2022-12-09)"
   xmlns:inkscape="http://www.inkscape.org/namespaces/inkscape"
   xmlns:sodipodi="http://sodipodi.sourceforge.net/DTD/sodipodi-0.dtd"
   xmlns="http://www.w3.org/2000/svg"
   xmlns:svg="http://www.w3.org/2000/svg">
  <defs
     id="defs16" />
  <sodipodi:namedview
     id="namedview14"
     pagecolor="#ffffff"
     bordercolor="#666666"
     borderopacity="1.0"
     inkscape:showpageshadow="2"
     inkscape:pageopacity="0.0"
     inkscape:pagecheckerboard="0"
     inkscape:deskcolor="#d1d1d1"
     showgrid="false"
     inkscape:zoom="4"
     inkscape:cx="-42.25"
     inkscape:cy="101.625"
     inkscape:window-width="2560"
     inkscape:window-height="1361"
     inkscape:window-x="-9"
     inkscape:window-y="-9"
     inkscape:window-maximized="1"
     inkscape:current-layer="svg12" />
  <circle
     style="fill:#ffffff;fill-opacity:1;stroke:none;stroke-width:2.15843;stroke-dasharray:none;stroke-opacity:1"
     id="path8400"
     cx="67"
     cy="69.25"
     r="64.522369" />
  <path
     d="m 118.43827,92.851482 c -0.91261,1.925482 -1.18275,4.044128 -2.53695,6.381928 -1.3543,2.3378 -3.001,4.6252 -4.6513,6.696 -1.6503,2.0708 -3.6043,4.1113 -5.4823,5.8698 -1.878,1.7585 -4.0673,3.5182 -6.0982,4.9345 -2.031,1.4164 -4.3783,2.8932 -6.4847,3.9527 -2.1064,1.0596 -4.4484,2.1041 -6.516,2.9076 -2.0676,0.80347 -4.5709,1.5783 -6.5756,2.0396 -2.0046,0.46135 -4.2903,0.92586 -6.1492,1.1669 -1.8588,0.24099 -4.0268,0.44599 -5.6962,0.49729 -1.6695,0.0513 -3.4462,0.0317 -4.8907,0.005 -1.4444,-0.0263 -3.2219,-0.23011 -4.4112,-0.37009 -1.1894,-0.14001 -2.4878,-0.338 -3.4042,-0.4908 -0.91638,-0.15284 -1.9402,-0.36099 -2.565,-0.49474 -0.62487,-0.13374 -1.1032,-0.23372 -1.4245,-0.29746 -0.3213,-0.0637 -0.48558,-0.0913 -0.48238,-0.0802 5.014171,4.39904 12.798167,6.60916 16.731203,7.25816 6.962745,1.58715 12.867352,0.62024 19.817427,-1.21738 3.273,-0.87001 9.1469,-3.1469 12.548,-5.0011 3.4006,-1.8543 8.6082,-5.2358 11.919,-7.9742 3.3106,-2.7384 8.2107,-7.992 10.974,-11.739 2.7635,-3.7469 6.8933,-11.159 8.6883,-16.342 1.795,-5.1821 3.7571,-14.12 3.942,-20.121 0.18495,-6.0005 -0.94318,-15.882 -2.8455,-21.797 -1.9023,-5.9148 -6.1954,-14.83 -9.8765,-19.711 -3.681,-4.8812 -10.718,-12.013 -15.824,-15.377 -5.1059,-3.3636 -13.339,-7.3323 -18.446,-8.8012 -5.107,-1.4688 -12.71,-2.6176 -16.585,-2.7262 -3.8752,-0.10859 -8.4408,0.23846 -8.7661,0.27822 -0.32528,0.0401 -2.3446,0.23911 -4.5709,0.58352 -2.2262,0.34478 -6.605,1.3473 -9.7103,2.2857 -3.1053,0.93843 -8.3354,3.1888 -11.771,4.9814 -3.4352,1.7926 -8.918,5.6062 -11.983,8.2742 -3.0649,2.668 -7.3701,7.3617 -9.9879,10.723 -2.6178,3.361 -6.0594,9.6481 -7.7745,13.548 -1.715,3.9 -3.798,10.78 -4.4665,14.789 -0.66861,4.0087 -1.1746,10.312 -1.0692,13.982 0.10541,3.6697 0.84317,9.643 1.6054,13.029 0.76218,3.3859 2.5148,8.9366 3.7928,11.866 1.2779,2.9297 3.5626,7.3019 5.0589,9.7252 1.4963,2.4233 4.2565,6.1156 5.8123,7.9771 1.5558,1.8615 4.0362,4.3873 5.4106,5.7426 5.6852,3.9881 4.2897,2.3216 9.5145,4.3202 7.5889,2.9813 17.616,-0.24092 19.336,-3.5808 1.7209,-3.3399 -0.50799,-12.354 -9.6623,-21.468 -1.3847,-1.2713 -1.979,-1.7497 -3.5755,-3.5234 -1.5965,-1.7737 -1.9926,-2.18 -3.5708,-4.5328 -1.5782,-2.3527 -2.0662,-3.2155 -3.4672,-6.1145 -1.4009,-2.899 -1.5719,-3.5473 -2.4883,-6.9733 -0.91644,-3.426 -1.0219,-4.3462 -1.2887,-8.15 -0.26686,-3.8039 -0.35637,-4.4696 0.39429,-8.8103 0.75068,-4.3407 0.76421,-5.5188 2.6991,-9.8673 1.93489,-4.3485 2.4773,-5.7482 5.481,-9.5897 3.0037,-3.8415 4.163,-5.003 7.8955,-7.9502 3.7324,-2.9472 4.7127,-3.6356 9.0586,-5.4091 4.3459,-1.7735 5.7372,-2.4071 9.7303,-3.0121 3.9931,-0.605 5.3981,-0.8679 8.3044,-0.74648 2.9063,0.12144 3.9779,0.17672 4.2132,0.20649 0.23528,0.0298 1.0724,0.0273 3.2484,0.39871 2.176,0.37142 3.5111,0.47075 6.7628,1.5461 3.2517,1.0753 5.0458,1.6615 8.783,3.7974 3.7372,2.1359 5.639,3.4622 9.0978,6.7716 3.4588,3.3094 5.2147,5.2805 7.8006,9.7903 2.586,4.5098 4.0398,7.4296 5.2845,12.675 1.2448,5.2452 1.8175,8.8222 1.48,14.176 -0.33749,5.3533 -1.094,9.2812 -2.6784,14.148 -1.5844,4.8664 -3.3532,8.3224 -6.1966,12.355 -2.8434,4.0325 -5.5919,7.068 -9.0826,10.095 -3.4908,3.0266 -6.8433,5.1387 -10.556,7.051 0.24439,-0.0343 0.57637,-0.11468 0.99076,-0.23845 0.41438,-0.12377 0.8491,-0.2745 1.4126,-0.50951 0.56352,-0.23497 1.1612,-0.46561 1.854,-0.81976 0.69285,-0.35421 1.4231,-0.69367 2.2254,-1.173 0.80233,-0.47934 1.633,-0.9513 2.5246,-1.5601 0.89209,-0.60824 1.789,-1.2319 2.751,-1.9713 0.96201,-0.7394 1.8908,-1.5278 2.9037,-2.3982 1.0128,-0.87037 1.8962,-1.7831 2.8913,-2.8321 0.99518,-1.049 1.9152,-2.0505 2.8591,-3.2736 0.94387,-1.2231 2.14181,-2.25978 3.11415,-3.570929 1.19068,-1.605564 3.8955,-5.589316 4.7183,-7.086216"
     id="path10"
     sodipodi:nodetypes="ccssscsccscscscccccccccccccccccccccccccssccccscccccsscssccscssccsccccsccscsccssc" />
  <g
     aria-label="マ"
     id="text176"
     style="font-size:93.3333px;line-height:1.25">
    <path
       d="m 106.04824,61.859015 q -2.39912,0 -3.77004,1.370925 -10.28194,10.624666 -26.047573,19.535676 6.16916,5.483698 6.16916,10.967396 0,3.770048 -1.713656,3.770048 -1.713656,0 -2.399118,-1.713661 -2.399117,-5.826429 -8.568279,-11.99559 -4.455504,-4.455505 -12.681052,-8.568279 -1.028194,-0.685462 0.685462,-1.028193 10.624666,3.084579 16.793827,7.197354 14.051977,-9.596473 23.305721,-20.906601 1.028188,-1.370925 -1.370929,-1.713656 -24.676642,1.370925 -42.841393,5.82643 -4.798236,1.370925 -7.540085,2.399118 -1.028194,2.056387 -2.056387,2.056387 -1.028194,0 -4.455505,-3.427311 -3.084581,-3.084581 -3.084581,-5.82643 0,-1.713656 1.370925,-0.342732 1.028194,2.74185 4.455506,2.74185 4.798235,0 8.568278,-0.685462 19.192944,-3.427312 46.954171,-5.140967 1.713654,-1.028194 3.084578,-2.74185 1.71366,1.028194 5.48369,4.112774 2.39913,2.056387 2.39913,3.08458 0,1.028194 -2.74185,1.028194 z"
       style="font-weight:bold;font-family:Cambria;-inkscape-font-specification:'Cambria Bold';stroke:#000000;stroke-width:2.35016;stroke-dasharray:none;stroke-opacity:1"
       id="path959" />
  </g>
</svg>
